<?xml version="1.0" standalone="no"?>
<!DOCTYPE svg PUBLIC "-//W3C//DTD SVG 20010904//EN"
 "http://www.w3.org/TR/2001/REC-SVG-20010904/DTD/svg10.dtd">
<svg version="1.0" xmlns="http://www.w3.org/2000/svg"
 width="80.000000pt" height="80.000000pt" viewBox="0 0 80.000000 80.000000"
 preserveAspectRatio="xMidYMid meet">

<g transform="translate(0.000000,80.000000) scale(0.100000,-0.100000)"
fill="#00AAFF" stroke="none">
<path d="M387 687 c-58 -57 -86 -119 -94 -203 -6 -74 3 -81 18 -14 5 23 20 57
32 76 26 38 93 94 113 94 7 0 15 4 19 10 8 12 -21 80 -35 80 -6 0 -30 -19 -53
-43z"/>
<path d="M201 613 c-46 -171 -45 -212 7 -265 25 -27 50 -39 37 -18 -5 8 27
163 60 293 7 27 7 27 -44 27 -50 0 -50 0 -60 -37z"/>
<path d="M535 638 c-2 -7 -19 -74 -36 -148 -17 -74 -36 -143 -41 -154 -16 -31
70 22 100 62 21 28 72 196 72 240 0 16 -89 16 -95 0z"/>
<path d="M442 621 c-11 -6 -10 -20 4 -69 16 -57 16 -67 2 -117 -8 -30 -14 -55
-12 -55 2 0 13 19 26 43 15 30 23 66 26 125 4 75 3 82 -14 82 -11 0 -25 -4
-32 -9z"/>
<path d="M301 394 c0 -11 3 -14 6 -6 3 7 2 16 -1 19 -3 4 -6 -2 -5 -13z"/>
<path d="M188 113 c7 -3 16 -2 19 1 4 3 -2 6 -13 5 -11 0 -14 -3 -6 -6z"/>
<path d="M578 113 c7 -3 16 -2 19 1 4 3 -2 6 -13 5 -11 0 -14 -3 -6 -6z"/>
</g>
</svg>
